<?xml version="1.0" encoding="UTF-8" standalone="no"?><svg xmlns="http://www.w3.org/2000/svg" xmlns:xlink="http://www.w3.org/1999/xlink" clip-rule="evenodd" stroke-miterlimit="4.00" viewBox="0 0 271 34"><desc>SVG generated by Keynote</desc><defs></defs><g transform="matrix(1.00, 0.00, -0.00, -1.00, 0.0, 34.0)"><text xml:space="preserve" font-family="Helvetica-Light" font-size="28.5" fill="#FEFFFF" transform="matrix(1.00, 0.00, -0.00, -1.00, 0.0, 7.5)">•</text><text xml:space="preserve" font-family="Helvetica-Light" font-size="38.0" fill="#FEFFFF" transform="matrix(1.00, 0.00, -0.00, -1.00, 35.0, 4.0)">N</text><text xml:space="preserve" font-family="Helvetica-Light" font-size="38.0" fill="#FEFFFF" transform="matrix(1.00, 0.00, -0.00, -1.00, 62.4, 4.0)">e</text><text xml:space="preserve" font-family="Helvetica-Light" font-size="38.0" fill="#FEFFFF" transform="matrix(1.00, 0.00, -0.00, -1.00, 83.6, 4.0)">w</text><text xml:space="preserve" font-family="Helvetica-Light" font-size="38.0" fill="#FEFFFF" transform="matrix(1.00, 0.00, -0.00, -1.00, 111.0, 4.0)"> </text><text xml:space="preserve" font-family="Helvetica-Light" font-size="38.0" fill="#FEFFFF" transform="matrix(1.00, 0.00, -0.00, -1.00, 121.6, 4.0)">E</text><text xml:space="preserve" font-family="Helvetica-Light" font-size="38.0" fill="#FEFFFF" transform="matrix(1.00, 0.00, -0.00, -1.00, 144.8, 4.0)">l</text><text xml:space="preserve" font-family="Helvetica-Light" font-size="38.0" fill="#FEFFFF" transform="matrix(1.00, 0.00, -0.00, -1.00, 153.2, 4.0)">e</text><text xml:space="preserve" font-family="Helvetica-Light" font-size="38.0" fill="#FEFFFF" transform="matrix(1.00, 0.00, -0.00, -1.00, 174.3, 4.0)">m</text><text xml:space="preserve" font-family="Helvetica-Light" font-size="38.0" fill="#FEFFFF" transform="matrix(1.00, 0.00, -0.00, -1.00, 206.0, 4.0)">e</text><text xml:space="preserve" font-family="Helvetica-Light" font-size="38.0" fill="#FEFFFF" transform="matrix(1.00, 0.00, -0.00, -1.00, 227.1, 4.0)">n</text><text xml:space="preserve" font-family="Helvetica-Light" font-size="38.0" fill="#FEFFFF" transform="matrix(1.00, 0.00, -0.00, -1.00, 248.3, 4.0)">t</text><text xml:space="preserve" font-family="Helvetica-Light" font-size="38.0" fill="#FEFFFF" transform="matrix(1.00, 0.00, -0.00, -1.00, 258.8, 4.0)">:</text><text xml:space="preserve" font-family="Helvetica-Light" font-size="38.0" fill="#FEFFFF" transform="matrix(1.00, 0.00, -0.00, -1.00, 269.4, 4.0)"> </text></g></svg>