<?xml version="1.0" encoding="UTF-8" standalone="no"?><svg xmlns="http://www.w3.org/2000/svg" xmlns:xlink="http://www.w3.org/1999/xlink" clip-rule="evenodd" stroke-miterlimit="4.00" viewBox="0 0 389 38"><desc>SVG generated by Keynote</desc><defs></defs><g transform="matrix(1.00, 0.00, -0.00, -1.00, 0.0, 38.0)"><text xml:space="preserve" font-family="Helvetica-Light" font-size="27.6" fill="#FEFFFF" transform="matrix(1.00, 0.00, -0.00, -1.00, 0.0, 12.3)">•</text><text xml:space="preserve" font-family="Helvetica-Light" font-size="36.9" fill="#FEFFFF" transform="matrix(1.00, 0.00, -0.00, -1.00, 34.0, 9.0)">S</text><text xml:space="preserve" font-family="Helvetica-Light" font-size="36.9" fill="#FEFFFF" transform="matrix(1.00, 0.00, -0.00, -1.00, 56.5, 9.0)">p</text><text xml:space="preserve" font-family="Helvetica-Light" font-size="36.9" fill="#FEFFFF" transform="matrix(1.00, 0.00, -0.00, -1.00, 79.0, 9.0)">e</text><text xml:space="preserve" font-family="Helvetica-Light" font-size="36.9" fill="#FEFFFF" transform="matrix(1.00, 0.00, -0.00, -1.00, 99.5, 9.0)">c</text><text xml:space="preserve" font-family="Helvetica-Light" font-size="36.9" fill="#FEFFFF" transform="matrix(1.00, 0.00, -0.00, -1.00, 120.0, 9.0)">i</text><text xml:space="preserve" font-family="Helvetica-Light" font-size="36.9" fill="#FEFFFF" transform="matrix(1.00, 0.00, -0.00, -1.00, 128.2, 9.0)">ﬁ</text><text xml:space="preserve" font-family="Helvetica-Light" font-size="36.9" fill="#FEFFFF" transform="matrix(1.00, 0.00, -0.00, -1.00, 146.6, 9.0)">c</text><text xml:space="preserve" font-family="Helvetica-Light" font-size="36.9" fill="#FEFFFF" transform="matrix(1.00, 0.00, -0.00, -1.00, 167.1, 9.0)">i</text><text xml:space="preserve" font-family="Helvetica-Light" font-size="36.9" fill="#FEFFFF" transform="matrix(1.00, 0.00, -0.00, -1.00, 175.3, 9.0)">t</text><text xml:space="preserve" font-family="Helvetica-Light" font-size="36.9" fill="#FEFFFF" transform="matrix(1.00, 0.00, -0.00, -1.00, 185.6, 9.0)">y</text><text xml:space="preserve" font-family="Helvetica-Light" font-size="36.9" fill="#FEFFFF" transform="matrix(1.00, 0.00, -0.00, -1.00, 204.0, 9.0)"> </text><text xml:space="preserve" font-family="Helvetica-Light" font-size="36.9" fill="#FEFFFF" transform="matrix(1.00, 0.00, -0.00, -1.00, 214.2, 9.0)">i</text><text xml:space="preserve" font-family="Helvetica-Light" font-size="36.9" fill="#FEFFFF" transform="matrix(1.00, 0.00, -0.00, -1.00, 222.4, 9.0)">s</text><text xml:space="preserve" font-family="Helvetica-Light" font-size="36.9" fill="#FEFFFF" transform="matrix(1.00, 0.00, -0.00, -1.00, 240.9, 9.0)"> </text><text xml:space="preserve" font-family="Helvetica-Light" font-size="36.9" fill="#FEFFFF" transform="matrix(1.00, 0.00, -0.00, -1.00, 251.1, 9.0)">t</text><text xml:space="preserve" font-family="Helvetica-Light" font-size="36.9" fill="#FEFFFF" transform="matrix(1.00, 0.00, -0.00, -1.00, 261.4, 9.0)">h</text><text xml:space="preserve" font-family="Helvetica-Light" font-size="36.9" fill="#FEFFFF" transform="matrix(1.00, 0.00, -0.00, -1.00, 281.8, 9.0)">e</text><text xml:space="preserve" font-family="Helvetica-Light" font-size="36.9" fill="#FEFFFF" transform="matrix(1.00, 0.00, -0.00, -1.00, 302.3, 9.0)"> </text><text xml:space="preserve" font-family="Helvetica-Light" font-size="36.9" fill="#FEFFFF" transform="matrix(1.00, 0.00, -0.00, -1.00, 312.6, 9.0)">d</text><text xml:space="preserve" font-family="Helvetica-Light" font-size="36.9" fill="#FEFFFF" transform="matrix(1.00, 0.00, -0.00, -1.00, 335.1, 9.0)">e</text><text xml:space="preserve" font-family="Helvetica-Light" font-size="36.9" fill="#FEFFFF" transform="matrix(1.00, 0.00, -0.00, -1.00, 355.6, 9.0)">v</text><text xml:space="preserve" font-family="Helvetica-Light" font-size="36.9" fill="#FEFFFF" transform="matrix(1.00, 0.00, -0.00, -1.00, 374.0, 9.0)">i</text><text xml:space="preserve" font-family="Helvetica-Light" font-size="36.9" fill="#FEFFFF" transform="matrix(1.00, 0.00, -0.00, -1.00, 382.2, 9.0)">l</text></g></svg>