<?xml version="1.0" encoding="UTF-8" standalone="no"?><svg xmlns="http://www.w3.org/2000/svg" xmlns:xlink="http://www.w3.org/1999/xlink" clip-rule="evenodd" stroke-miterlimit="4.00" viewBox="0 0 460 34"><desc>SVG generated by Keynote</desc><defs></defs><g transform="matrix(1.00, 0.00, -0.00, -1.00, 0.0, 34.0)"><text xml:space="preserve" font-family="Helvetica-Light" font-size="27.6" fill="#FEFFFF" transform="matrix(1.00, 0.00, -0.00, -1.00, 0.0, 8.1)">•</text><text xml:space="preserve" font-family="Helvetica-Light" font-size="36.9" fill="#FEFFFF" transform="matrix(1.00, 0.00, -0.00, -1.00, 34.0, 5.0)">T</text><text xml:space="preserve" font-family="Helvetica-Light" font-size="36.9" fill="#FEFFFF" transform="matrix(1.00, 0.00, -0.00, -1.00, 54.5, 5.0)">h</text><text xml:space="preserve" font-family="Helvetica-Light" font-size="36.9" fill="#FEFFFF" transform="matrix(1.00, 0.00, -0.00, -1.00, 75.0, 5.0)">e</text><text xml:space="preserve" font-family="Helvetica-Light" font-size="36.9" fill="#FEFFFF" transform="matrix(1.00, 0.00, -0.00, -1.00, 95.5, 5.0)"> </text><text xml:space="preserve" font-family="Helvetica-Light" font-size="36.9" fill="#FEFFFF" transform="matrix(1.00, 0.00, -0.00, -1.00, 105.7, 5.0)">C</text><text xml:space="preserve" font-family="Helvetica-Light" font-size="36.9" fill="#FEFFFF" transform="matrix(1.00, 0.00, -0.00, -1.00, 132.3, 5.0)"> </text><text xml:space="preserve" font-family="Helvetica-Light" font-size="36.9" fill="#FEFFFF" transform="matrix(1.00, 0.00, -0.00, -1.00, 142.6, 5.0)">i</text><text xml:space="preserve" font-family="Helvetica-Light" font-size="36.9" fill="#FEFFFF" transform="matrix(1.00, 0.00, -0.00, -1.00, 150.8, 5.0)">n</text><text xml:space="preserve" font-family="Helvetica-Light" font-size="36.9" fill="#FEFFFF" transform="matrix(1.00, 0.00, -0.00, -1.00, 171.3, 5.0)"> </text><text xml:space="preserve" font-family="Helvetica-Light" font-size="36.9" fill="#FEFFFF" transform="matrix(1.00, 0.00, -0.00, -1.00, 181.5, 5.0)">C</text><text xml:space="preserve" font-family="Helvetica-Light" font-size="36.9" fill="#FEFFFF" transform="matrix(1.00, 0.00, -0.00, -1.00, 208.1, 5.0)">S</text><text xml:space="preserve" font-family="Helvetica-Light" font-size="36.9" fill="#FEFFFF" transform="matrix(1.00, 0.00, -0.00, -1.00, 230.6, 5.0)">S</text><text xml:space="preserve" font-family="Helvetica-Light" font-size="36.9" fill="#FEFFFF" transform="matrix(1.00, 0.00, -0.00, -1.00, 253.2, 5.0)"> </text><text xml:space="preserve" font-family="Helvetica-Light" font-size="36.9" fill="#FEFFFF" transform="matrix(1.00, 0.00, -0.00, -1.00, 263.4, 5.0)">k</text><text xml:space="preserve" font-family="Helvetica-Light" font-size="36.9" fill="#FEFFFF" transform="matrix(1.00, 0.00, -0.00, -1.00, 281.8, 5.0)">i</text><text xml:space="preserve" font-family="Helvetica-Light" font-size="36.9" fill="#FEFFFF" transform="matrix(1.00, 0.00, -0.00, -1.00, 290.0, 5.0)">n</text><text xml:space="preserve" font-family="Helvetica-Light" font-size="36.9" fill="#FEFFFF" transform="matrix(1.00, 0.00, -0.00, -1.00, 310.5, 5.0)">d</text><text xml:space="preserve" font-family="Helvetica-Light" font-size="36.9" fill="#FEFFFF" transform="matrix(1.00, 0.00, -0.00, -1.00, 333.0, 5.0)">a</text><text xml:space="preserve" font-family="Helvetica-Light" font-size="36.9" fill="#FEFFFF" transform="matrix(1.00, 0.00, -0.00, -1.00, 353.5, 5.0)"> </text><text xml:space="preserve" font-family="Helvetica-Light" font-size="36.9" fill="#FEFFFF" transform="matrix(1.00, 0.00, -0.00, -1.00, 363.8, 5.0)">s</text><text xml:space="preserve" font-family="Helvetica-Light" font-size="36.9" fill="#FEFFFF" transform="matrix(1.00, 0.00, -0.00, -1.00, 382.2, 5.0)">u</text><text xml:space="preserve" font-family="Helvetica-Light" font-size="36.9" fill="#FEFFFF" transform="matrix(1.00, 0.00, -0.00, -1.00, 402.7, 5.0)">c</text><text xml:space="preserve" font-family="Helvetica-Light" font-size="36.9" fill="#FEFFFF" transform="matrix(1.00, 0.00, -0.00, -1.00, 423.2, 5.0)">k</text><text xml:space="preserve" font-family="Helvetica-Light" font-size="36.9" fill="#FEFFFF" transform="matrix(1.00, 0.00, -0.00, -1.00, 441.6, 5.0)">s</text></g></svg>