<?xml version="1.0" encoding="UTF-8" standalone="no"?><svg xmlns="http://www.w3.org/2000/svg" xmlns:xlink="http://www.w3.org/1999/xlink" clip-rule="evenodd" stroke-miterlimit="4.00" viewBox="0 0 1024 768"><desc>SVG generated by Keynote</desc><defs></defs><g transform="matrix(1.00, 0.00, -0.00, -1.00, 0.0, 768.0)"><path d="M 0.0 768.0 L 1024.0 768.0 L 1024.0 0.0 L 0.0 0.0 Z M 0.0 768.0 " fill="#000000"></path><text xml:space="preserve" font-family="Helvetica-Light" font-size="73.6" fill="#FEFFFF" transform="matrix(1.00, 0.00, -0.00, -1.00, 83.0, 635.0)">A</text><text xml:space="preserve" font-family="Helvetica-Light" font-size="73.6" fill="#FEFFFF" transform="matrix(1.00, 0.00, -0.00, -1.00, 132.1, 635.0)">M</text><text xml:space="preserve" font-family="Helvetica-Light" font-size="73.6" fill="#FEFFFF" transform="matrix(1.00, 0.00, -0.00, -1.00, 193.4, 635.0)">P</text><text xml:space="preserve" font-family="Helvetica-Light" font-size="73.6" fill="#FEFFFF" transform="matrix(1.00, 0.00, -0.00, -1.00, 238.4, 635.0)"> </text><text xml:space="preserve" font-family="Helvetica-Light" font-size="73.6" fill="#FEFFFF" transform="matrix(1.00, 0.00, -0.00, -1.00, 258.8, 635.0)">D</text><text xml:space="preserve" font-family="Helvetica-Light" font-size="73.6" fill="#FEFFFF" transform="matrix(1.00, 0.00, -0.00, -1.00, 312.0, 635.0)">o</text><text xml:space="preserve" font-family="Helvetica-Light" font-size="73.6" fill="#FEFFFF" transform="matrix(1.00, 0.00, -0.00, -1.00, 352.9, 635.0)">e</text><text xml:space="preserve" font-family="Helvetica-Light" font-size="73.6" fill="#FEFFFF" transform="matrix(1.00, 0.00, -0.00, -1.00, 393.8, 635.0)">s</text><text xml:space="preserve" font-family="Helvetica-Light" font-size="73.6" fill="#FEFFFF" transform="matrix(1.00, 0.00, -0.00, -1.00, 430.6, 635.0)"> </text><text xml:space="preserve" font-family="Helvetica-Light" font-size="73.6" fill="#FEFFFF" transform="matrix(1.00, 0.00, -0.00, -1.00, 451.1, 635.0)">E</text><text xml:space="preserve" font-family="Helvetica-Light" font-size="73.6" fill="#FEFFFF" transform="matrix(1.00, 0.00, -0.00, -1.00, 496.0, 635.0)">X</text><text xml:space="preserve" font-family="Helvetica-Light" font-size="73.6" fill="#FEFFFF" transform="matrix(1.00, 0.00, -0.00, -1.00, 541.0, 635.0)">A</text><text xml:space="preserve" font-family="Helvetica-Light" font-size="73.6" fill="#FEFFFF" transform="matrix(1.00, 0.00, -0.00, -1.00, 590.1, 635.0)">C</text><text xml:space="preserve" font-family="Helvetica-Light" font-size="73.6" fill="#FEFFFF" transform="matrix(1.00, 0.00, -0.00, -1.00, 643.2, 635.0)">T</text><text xml:space="preserve" font-family="Helvetica-Light" font-size="73.6" fill="#FEFFFF" transform="matrix(1.00, 0.00, -0.00, -1.00, 684.2, 635.0)">L</text><text xml:space="preserve" font-family="Helvetica-Light" font-size="73.6" fill="#FEFFFF" transform="matrix(1.00, 0.00, -0.00, -1.00, 716.9, 635.0)">Y</text><text xml:space="preserve" font-family="Helvetica-Light" font-size="73.6" fill="#FEFFFF" transform="matrix(1.00, 0.00, -0.00, -1.00, 761.9, 635.0)"> </text><text xml:space="preserve" font-family="Helvetica-Light" font-size="73.6" fill="#FEFFFF" transform="matrix(1.00, 0.00, -0.00, -1.00, 782.3, 635.0)">T</text><text xml:space="preserve" font-family="Helvetica-Light" font-size="73.6" fill="#FEFFFF" transform="matrix(1.00, 0.00, -0.00, -1.00, 823.3, 635.0)">H</text><text xml:space="preserve" font-family="Helvetica-Light" font-size="73.6" fill="#FEFFFF" transform="matrix(1.00, 0.00, -0.00, -1.00, 876.4, 635.0)">I</text><text xml:space="preserve" font-family="Helvetica-Light" font-size="73.6" fill="#FEFFFF" transform="matrix(1.00, 0.00, -0.00, -1.00, 896.9, 635.0)">S</text><image xlink:href="../../6FCCDC43-8983-4670-A601-338E31AE6845/assets/FA08D527346BFF447094EA713DDC103B.png" width="952.00" height="356.00" transform="matrix(1.00, 0.00, -0.00, -1.00, 36.0, 562.0)"></image></g></svg>