<?xml version="1.0" encoding="UTF-8" standalone="no"?><svg xmlns="http://www.w3.org/2000/svg" xmlns:xlink="http://www.w3.org/1999/xlink" clip-rule="evenodd" stroke-miterlimit="4.00" viewBox="0 0 866 70"><desc>SVG generated by Keynote</desc><defs></defs><g transform="matrix(1.00, 0.00, -0.00, -1.00, 0.0, 70.0)"><text xml:space="preserve" font-family="Helvetica-Light" font-size="70.4" fill="#FEFFFF" transform="matrix(1.00, 0.00, -0.00, -1.00, 1.0, 16.0)">W</text><text xml:space="preserve" font-family="Helvetica-Light" font-size="70.4" fill="#FEFFFF" transform="matrix(1.00, 0.00, -0.00, -1.00, 62.3, 16.0)">e</text><text xml:space="preserve" font-family="Helvetica-Light" font-size="70.4" fill="#FEFFFF" transform="matrix(1.00, 0.00, -0.00, -1.00, 101.5, 16.0)">b</text><text xml:space="preserve" font-family="Helvetica-Light" font-size="70.4" fill="#FEFFFF" transform="matrix(1.00, 0.00, -0.00, -1.00, 144.5, 16.0)"> </text><text xml:space="preserve" font-family="Helvetica-Light" font-size="70.4" fill="#FEFFFF" transform="matrix(1.00, 0.00, -0.00, -1.00, 164.0, 16.0)">c</text><text xml:space="preserve" font-family="Helvetica-Light" font-size="70.4" fill="#FEFFFF" transform="matrix(1.00, 0.00, -0.00, -1.00, 203.2, 16.0)">o</text><text xml:space="preserve" font-family="Helvetica-Light" font-size="70.4" fill="#FEFFFF" transform="matrix(1.00, 0.00, -0.00, -1.00, 242.3, 16.0)">m</text><text xml:space="preserve" font-family="Helvetica-Light" font-size="70.4" fill="#FEFFFF" transform="matrix(1.00, 0.00, -0.00, -1.00, 301.0, 16.0)">p</text><text xml:space="preserve" font-family="Helvetica-Light" font-size="70.4" fill="#FEFFFF" transform="matrix(1.00, 0.00, -0.00, -1.00, 344.0, 16.0)">o</text><text xml:space="preserve" font-family="Helvetica-Light" font-size="70.4" fill="#FEFFFF" transform="matrix(1.00, 0.00, -0.00, -1.00, 383.1, 16.0)">n</text><text xml:space="preserve" font-family="Helvetica-Light" font-size="70.4" fill="#FEFFFF" transform="matrix(1.00, 0.00, -0.00, -1.00, 422.3, 16.0)">e</text><text xml:space="preserve" font-family="Helvetica-Light" font-size="70.4" fill="#FEFFFF" transform="matrix(1.00, 0.00, -0.00, -1.00, 461.4, 16.0)">n</text><text xml:space="preserve" font-family="Helvetica-Light" font-size="70.4" fill="#FEFFFF" transform="matrix(1.00, 0.00, -0.00, -1.00, 500.6, 16.0)">t</text><text xml:space="preserve" font-family="Helvetica-Light" font-size="70.4" fill="#FEFFFF" transform="matrix(1.00, 0.00, -0.00, -1.00, 520.1, 16.0)">s</text><text xml:space="preserve" font-family="Helvetica-Light" font-size="70.4" fill="#FEFFFF" transform="matrix(1.00, 0.00, -0.00, -1.00, 555.3, 16.0)"> </text><text xml:space="preserve" font-family="Helvetica-Light" font-size="70.4" fill="#FEFFFF" transform="matrix(1.00, 0.00, -0.00, -1.00, 574.9, 16.0)">a</text><text xml:space="preserve" font-family="Helvetica-Light" font-size="70.4" fill="#FEFFFF" transform="matrix(1.00, 0.00, -0.00, -1.00, 614.0, 16.0)">t</text><text xml:space="preserve" font-family="Helvetica-Light" font-size="70.4" fill="#FEFFFF" transform="matrix(1.00, 0.00, -0.00, -1.00, 633.6, 16.0)"> </text><text xml:space="preserve" font-family="Helvetica-Light" font-size="70.4" fill="#FEFFFF" transform="matrix(1.00, 0.00, -0.00, -1.00, 653.2, 16.0)">T</text><text xml:space="preserve" font-family="Helvetica-Light" font-size="70.4" fill="#FEFFFF" transform="matrix(1.00, 0.00, -0.00, -1.00, 685.9, 16.0)">r</text><text xml:space="preserve" font-family="Helvetica-Light" font-size="70.4" fill="#FEFFFF" transform="matrix(1.00, 0.00, -0.00, -1.00, 709.3, 16.0)">u</text><text xml:space="preserve" font-family="Helvetica-Light" font-size="70.4" fill="#FEFFFF" transform="matrix(1.00, 0.00, -0.00, -1.00, 748.4, 16.0)">e</text><text xml:space="preserve" font-family="Helvetica-Light" font-size="70.4" fill="#FEFFFF" transform="matrix(1.00, 0.00, -0.00, -1.00, 787.6, 16.0)">X</text><text xml:space="preserve" font-family="Helvetica-Light" font-size="70.4" fill="#FEFFFF" transform="matrix(1.00, 0.00, -0.00, -1.00, 830.6, 16.0)">?</text></g></svg>